<?xml version="1.0" standalone="no"?><!DOCTYPE svg PUBLIC "-//W3C//DTD SVG 1.1//EN" "http://www.w3.org/Graphics/SVG/1.1/DTD/svg11.dtd"><svg t="1562594285418" class="icon" viewBox="0 0 1024 1024" version="1.1" xmlns="http://www.w3.org/2000/svg" p-id="1997" xmlns:xlink="http://www.w3.org/1999/xlink" width="200" height="200"><defs><style type="text/css"></style></defs><path d="M512.012564 1019.024491c-279.570847 0-507.024491-227.453644-507.024491-507.024491 0-279.583411 227.453644-507.037055 507.024491-507.037055 279.558282 0 507.011926 227.453644 507.011926 507.037055C1019.024491 791.583411 791.570847 1019.024491 512.012564 1019.024491zM512.012564 22.779288c-269.758037 0-489.220712 219.475239-489.220712 489.233276 0 269.758037 219.462675 489.208147 489.220712 489.208147 269.745472 0 489.195583-219.45011 489.195583-489.208147C1001.208147 242.254528 781.758037 22.779288 512.012564 22.779288z" p-id="1998"></path><path d="M653.060712 761.190086 352.57011 761.190086c-13.68265 0-19.437153-11.32054-23.633669-19.587926-1.306699-2.575706-2.651092-5.251926-4.297031-7.739681-44.025718-66.892957-88.60427-154.492074-85.36265-296.922307 0.452319-17.941988 13.36854-31.989006 29.413301-31.989006l475.110871 0c7.739681 0 15.391411 3.404957 20.957448 9.347926 5.905276 6.282209 8.970994 14.826012 8.41816 23.432638-0.691043 10.868221-1.771583 22.201325-3.229055 33.798282l37.580172 0c15.893988 0 31.172319 8.166871 39.892025 21.321816 7.664294 11.584393 14.009325 32.001571 0.628221 63.588515l-37.768638 89.157104c-10.12692 23.884957-27.189399 55.647804-58.474798 55.647804l-50.785374 0C669.545227 761.190086 658.450847 761.190086 653.060712 761.190086zM268.690061 422.754945c-6.206822 0-11.408491 6.546061-11.609521 14.612417-3.141104 137.517546 39.917153 222.113767 82.435141 286.707436 2.010307 3.053153 3.681374 6.307337 5.28962 9.461006 3.756761 7.387877 5.402699 9.837939 7.76481 9.837939l299.573399 0c3.819583-2.311853 15.517055-16.258356 35.557301-55.120098l2.487755-4.837301 61.615902 0c15.768344 0 29.136883-14.22292 42.090798-44.767018l37.768638-89.157104c8.141742-19.236123 8.468417-35.419092 0.917202-46.815018-5.452957-8.242258-15.052172-13.355975-25.040883-13.355975l-58.009914 0 1.444908-10.152049c2.085693-14.687804 3.568294-29.023804 4.447804-42.58081 0.238724-3.719067-1.093104-7.400442-3.631117-10.114356-2.223902-2.374675-5.126282-3.731632-7.978405-3.731632L268.690061 422.74238zM742.582184 671.744l-47.254773 0 5.628859-12.551853c20.492564-45.659092 33.760589-90.96638 44.327264-151.539436l1.356957-7.802503 21.460025 1.206184c4.510626 0.251288 8.870479 0.301546 13.004172 0.301546l9.410748-0.037693c11.307975 0 25.380123 0 32.127215 9.951018 6.508368 9.574086 2.399804 23.206479-1.884663 34.011877l-35.029595 88.37811C778.315387 652.382233 770.663656 671.744 742.582184 671.744zM722.667583 653.927656l19.914601 0c14.097276 0 18.105325-5.390135 26.586307-26.812466l35.04216-88.390675c5.679117-14.298307 3.731632-17.414282 3.719067-17.451975-0.665914-0.96746-4.221644-2.135951-17.401718-2.135951l-9.410748 0.037693c-4.447804 0-9.146896-0.062822-14.009325-0.326675l-5.666552-0.31411C751.791902 571.366871 739.905963 612.992785 722.667583 653.927656z" p-id="1999"></path><path d="M699.410847 842.192883 301.28216 842.192883c-11.559264 0-15.504491-8.644319-18.11789-14.373693-1.39465-3.053153-2.713914-5.942969-5.000638-8.493546-3.040589-3.392393-6.772221-6.784785-10.265129-10.01384-9.988712-9.172025-17.879166-16.446822-14.411387-25.354994 3.291877-8.430724 13.946503-8.430724 17.967117-8.430724l454.178552 0c6.307337 0 19.424589 0 22.703902 9.800245 3.455215 10.302822-7.023509 18.218405-21.535411 29.162012-2.940074 2.236466-5.955534 4.485497-8.707141 6.721963-7.073767 5.653988-9.04638 11.596957-9.775117 13.833423l-2.022871 6.093742L699.410847 842.192883zM276.844368 793.367558c1.08054 1.005153 2.148515 1.985178 3.090847 2.864687 3.920098 3.593423 8.066356 7.438135 11.471313 11.220025 4.108564 4.573448 6.332466 9.435877 7.953276 12.991607 0.728736 1.570552 1.708761 3.744196 2.236466 4.271902l391.783656-0.301546c2.16108-4.686528 6.106307-11.081816 13.544442-17.03735 2.889816-2.336982 6.03092-4.699092 9.146896-7.048638 2.70135-2.035436 6.056049-4.573448 8.983558-6.948123L276.844368 793.380123z" p-id="2000"></path><path d="M619.538847 414.34935l0-15.994503c7.312491 3.907534 13.695215 9.347926 17.766086 15.994503L619.538847 414.34935 619.538847 414.34935zM619.538847 371.102626c8.933301 18.947141 33.245448 30.94616 65.661644 18.067632 29.32535-11.684908 56.967067-40.658454 61.942577-72.044368-25.392687-19.110479-65.448049-20.70616-94.610061-8.682012-17.200687 7.073767-27.805055 17.640442-32.956466 28.98611l0 33.697767L619.538847 371.127755zM619.538847 256.917202l0-56.766037C624.690258 218.344442 624.388712 238.837006 619.538847 256.917202zM548.147828 389.23308c4.447804 7.33762 7.023509 15.931681 7.048638 25.103706l-7.048638 0L548.147828 389.23308 548.147828 389.23308zM619.538847 200.16373l0 56.791166c-1.256442 4.611141-2.776736 9.084074-4.586012 13.305718-15.680393 36.32373-46.651681 42.605939-66.779877 29.890748l0-86.769865c14.888834-19.361767 36.776049-34.652663 59.70611-37.894282C613.130994 182.762012 616.975706 191.180172 619.538847 200.16373L619.538847 200.16373zM619.538847 337.367166l0 33.748025C614.751804 360.925448 614.349742 348.775656 619.538847 337.367166L619.538847 337.367166zM619.538847 398.317153l0 16.019632-55.40908 0c0.138209-11.383362 9.687166-22.75416 28.634307-22.84211C601.621988 391.444417 611.196074 393.881914 619.538847 398.317153L619.538847 398.317153zM548.147828 374.570405l0-34.037006c0.904638-1.130798 1.884663-2.261595 3.01546-3.404957 11.735166-11.848245 31.561816-19.336638 47.857865-15.290896 4.070871 16.346307-3.392393 36.147828-15.290896 47.908123C570.675828 382.66189 556.415215 381.882896 548.147828 374.570405zM529.150429 371.328785c7.827632 4.146258 14.386258 10.35308 18.997399 17.916859l0 25.103706-18.997399 0L529.150429 371.328785 529.150429 371.328785zM548.147828 213.331239l0 86.769865c-10.227436-6.45811-17.640442-17.715828-18.997399-32.391067l0-9.687166c0.590528-6.772221 2.36211-14.084712 5.566037-21.862086C538.033472 228.282896 542.581791 220.53065 548.147828 213.331239L548.147828 213.331239zM548.147828 340.533399c-10.528982 13.104687-8.217129 26.799902 0 34.037006L548.147828 340.533399 548.147828 340.533399zM529.150429 332.278577l0-9.15946c0.150773 1.696196 0.22616 3.367264 0.22616 4.975509C529.376589 329.552098 529.276074 330.959313 529.150429 332.278577zM506.358577 365.674798c8.229693 0 16.007067 2.035436 22.804417 5.641423l0 43.020564-45.357546 0 0-43.171337C490.55254 367.67254 498.20427 365.674798 506.358577 365.674798L506.358577 365.674798zM529.150429 258.022871l0 9.687166C528.886577 264.631755 528.861448 261.390135 529.150429 258.022871L529.150429 258.022871zM529.150429 323.15681l0 9.15946c-3.166233 31.875926-40.595632 32.617227-45.357546 2.186209l0-13.745472c2.035436-14.700368 10.214871-29.86562 22.553129-37.278626C519.33762 291.280883 527.73065 307.74027 529.150429 323.15681L529.150429 323.15681zM483.805448 269.871117l0-14.750626C484.446233 260.359853 484.446233 265.310233 483.805448 269.871117zM483.805448 414.34935l-19.261252 0 0-25.128834c4.63627-7.601472 11.307975-13.871117 19.261252-18.042503L483.805448 414.34935 483.805448 414.34935zM483.805448 255.133055l0 14.750626c-1.93492 13.79573-9.347926 24.34984-19.261252 30.330503L464.544196 212.213006c5.842454 7.513521 10.654626 15.579877 14.047018 23.822135C481.355387 242.782233 483.039018 249.139828 483.805448 255.133055L483.805448 255.133055zM483.805448 320.719313l0 13.745472c-0.288982-1.960049-0.490012-4.070871-0.502577-6.357595C483.290307 325.707387 483.44108 323.232196 483.805448 320.719313L483.805448 320.719313zM464.544196 374.570405c8.204564-7.237104 10.528982-20.932319 0-34.037006L464.544196 374.570405zM464.544196 414.34935l-7.073767 0c0.037693-9.172025 2.613399-17.791215 7.073767-25.128834L464.544196 414.34935 464.544196 414.34935zM464.544196 212.213006l0 88.001178c-20.216147 12.300564-50.848196 5.71681-66.277301-30.40589-1.82184-4.221644-3.317006-8.656883-4.52319-13.305718l0-56.024736c2.575706-9.247411 6.546061-17.967117 11.999018-25.392687C428.270724 178.339337 449.743313 193.290994 464.544196 212.213006L464.544196 212.213006zM464.544196 340.533399l0 34.037006c-8.292515 7.312491-22.528 8.104049-35.607558-4.837301-11.873374-11.760294-19.361767-31.561816-15.30346-47.908123 16.333742-4.045742 36.147828 3.404957 47.895558 15.290896C462.62184 338.271804 463.601865 339.402601 464.544196 340.533399L464.544196 340.533399zM393.718577 414.34935l0-16.321178c8.192-4.246773 17.539926-6.546061 26.19681-6.533497 18.984834 0.125644 28.533791 11.43362 28.621742 22.816982L393.718577 414.34935 393.718577 414.34935zM393.718577 369.707975l0-33.270577C398.744344 347.695117 398.379975 359.643877 393.718577 369.707975zM393.718577 200.502969l0 56.024736C388.981791 238.661104 388.717939 218.470086 393.718577 200.502969L393.718577 200.502969zM393.718577 336.424834l0 33.270577c-8.908172 19.135607-33.42135 31.285399-66.013448 18.067632-29.237399-11.898503-56.665521-41.123337-61.377178-72.559509 25.54346-18.922012 65.623951-20.191018 94.672883-7.953276C378.138699 314.437104 388.642552 325.066601 393.718577 336.424834L393.718577 336.424834zM393.718577 398.028172c-7.588908 3.932663-14.160098 9.473571-18.356613 16.321178l18.356613 0L393.718577 398.028172z" p-id="2001"></path></svg>